<svg width="40" height="40" viewBox="0 0 40 40" fill="none" xmlns="http://www.w3.org/2000/svg">
<path d="M8.74983 19.375C8.74983 19.0435 8.88152 18.7255 9.11594 18.4911C9.35036 18.2567 9.6683 18.125 9.99983 18.125L26.9873 18.125L25.3623 16.5125C25.1269 16.2771 24.9947 15.9579 24.9947 15.625C24.9947 15.2921 25.1269 14.9729 25.3623 14.7375C25.5977 14.5021 25.9169 14.3699 26.2498 14.3699C26.5827 14.3699 26.9019 14.5021 27.1373 14.7375L30.8873 18.4875C31.0608 18.6633 31.1783 18.8865 31.225 19.129C31.2717 19.3715 31.2456 19.6223 31.1498 19.85C31.0561 20.0783 30.8968 20.2737 30.6922 20.4116C30.4875 20.5495 30.2466 20.6238 29.9998 20.625L9.99983 20.625C9.6683 20.625 9.35036 20.4933 9.11594 20.2589C8.88152 20.0244 8.74983 19.7065 8.74983 19.375Z" fill="white"/>
<path d="M25.0003 23.125C24.9993 22.9605 25.0308 22.7974 25.093 22.6451C25.1552 22.4928 25.2469 22.3543 25.3628 22.2375L29.1128 18.4875C29.3481 18.2521 29.6674 18.1199 30.0003 18.1199C30.1651 18.1199 30.3283 18.1523 30.4806 18.2154C30.6328 18.2785 30.7712 18.3709 30.8878 18.4875C31.0043 18.604 31.0968 18.7424 31.1598 18.8947C31.2229 19.047 31.2554 19.2102 31.2554 19.375C31.2554 19.7079 31.1231 20.0271 30.8878 20.2625L27.1378 24.0125C27.0216 24.1296 26.8833 24.2226 26.731 24.2861C26.5787 24.3496 26.4153 24.3822 26.2503 24.3822C26.0852 24.3822 25.9219 24.3496 25.7695 24.2861C25.6172 24.2226 25.479 24.1296 25.3628 24.0125C25.2469 23.8957 25.1552 23.7572 25.093 23.6049C25.0308 23.4526 24.9993 23.2895 25.0003 23.125Z" fill="white"/>
</svg>
