<svg width="40" height="40" viewBox="0 0 40 40" fill="none" xmlns="http://www.w3.org/2000/svg">
<g id="Arrow">
<path id="Vector" d="M31.2502 20.625C31.2502 20.9565 31.1185 21.2745 30.8841 21.5089C30.6496 21.7433 30.3317 21.875 30.0002 21.875L13.0127 21.875L14.6377 23.4875C14.8731 23.7229 15.0053 24.0421 15.0053 24.375C15.0053 24.7079 14.8731 25.0271 14.6377 25.2625C14.4023 25.4979 14.0831 25.6301 13.7502 25.6301C13.4173 25.6301 13.0981 25.4979 12.8627 25.2625L9.11267 21.5125C8.93923 21.3367 8.82173 21.1135 8.77501 20.871C8.7283 20.6285 8.75445 20.3777 8.85017 20.15C8.94395 19.9217 9.1032 19.7263 9.30785 19.5884C9.5125 19.4505 9.75339 19.3762 10.0002 19.375L30.0002 19.375C30.3317 19.375 30.6496 19.5067 30.8841 19.7411C31.1185 19.9756 31.2502 20.2935 31.2502 20.625Z" fill="#909090"/>
<path id="Vector_2" d="M14.9997 16.875C15.0007 17.0395 14.9692 17.2026 14.907 17.3549C14.8448 17.5072 14.7531 17.6457 14.6372 17.7625L10.8872 21.5125C10.6519 21.7479 10.3326 21.8801 9.99974 21.8801C9.83492 21.8801 9.67171 21.8477 9.51943 21.7846C9.36715 21.7215 9.22879 21.6291 9.11224 21.5125C8.9957 21.396 8.90324 21.2576 8.84017 21.1053C8.77709 20.953 8.74463 20.7898 8.74463 20.625C8.74463 20.2921 8.87686 19.9729 9.11224 19.7375L12.8622 15.9875C12.9784 15.8704 13.1167 15.7774 13.269 15.7139C13.4213 15.6504 13.5847 15.6178 13.7497 15.6178C13.9148 15.6178 14.0781 15.6504 14.2305 15.7139C14.3828 15.7774 14.521 15.8704 14.6372 15.9875C14.7531 16.1043 14.8448 16.2428 14.907 16.3951C14.9692 16.5474 15.0007 16.7105 14.9997 16.875Z" fill="#909090"/>
</g>
</svg>
