<svg width="32" height="32" viewBox="0 0 32 32" fill="none" xmlns="http://www.w3.org/2000/svg">
<path d="M15.9998 20C15.8243 20.001 15.6503 19.9673 15.4879 19.901C15.3254 19.8346 15.1777 19.7369 15.0531 19.6133L9.71976 14.28C9.46869 14.0289 9.32764 13.6884 9.32764 13.3333C9.32764 12.9782 9.46869 12.6377 9.71976 12.3866C9.97083 12.1356 10.3114 11.9945 10.6664 11.9945C11.0215 11.9945 11.362 12.1356 11.6131 12.3866L15.9998 16.7866L20.3864 12.4C20.6415 12.1815 20.9696 12.0674 21.3052 12.0803C21.6407 12.0933 21.9591 12.2324 22.1965 12.4699C22.434 12.7073 22.5731 13.0257 22.586 13.3612C22.599 13.6968 22.4849 14.0249 22.2664 14.28L16.9331 19.6133C16.6847 19.8596 16.3495 19.9985 15.9998 20Z" fill="#313131"/>
</svg>
