<svg width="80" height="80" viewBox="0 0 80 80" fill="none" xmlns="http://www.w3.org/2000/svg">
<g id="Location" clip-path="url(#clip0_1_1048)">
<path id="Vector" d="M63.4833 27.65C63.4833 44.5333 39.9999 65.7 39.9999 65.7C39.9999 65.7 16.5166 44.5333 16.5166 27.65C16.5166 14.6833 27.0333 4.16663 39.9999 4.16663C52.9666 4.16663 63.4833 14.6833 63.4833 27.65Z" fill="#9B9A78"/>
<path id="Vector_2" d="M39.9999 37.3833C45.3755 37.3833 49.7333 33.0255 49.7333 27.65C49.7333 22.2744 45.3755 17.9166 39.9999 17.9166C34.6244 17.9166 30.2666 22.2744 30.2666 27.65C30.2666 33.0255 34.6244 37.3833 39.9999 37.3833Z" fill="white"/>
<path id="Vector_3" d="M39.9998 69.0334C39.1998 69.0334 38.3998 68.75 37.7664 68.1834C36.7664 67.2834 13.1831 45.8167 13.1831 27.65C13.1998 12.8667 25.2164 0.833374 39.9998 0.833374C54.7831 0.833374 66.8164 12.8667 66.8164 27.65C66.8164 45.8167 43.2498 67.2834 42.2331 68.1834C41.5998 68.75 40.7998 69.0334 39.9998 69.0334ZM39.9998 7.50004C28.8998 7.50004 19.8664 16.5334 19.8664 27.65C19.8664 38.9667 32.8164 54.05 39.9998 61.1C45.6498 55.5 60.1498 39.95 60.1498 27.65C60.1498 16.5334 51.0998 7.50004 39.9998 7.50004Z" fill="#313131"/>
<path id="Vector_4" d="M39.9998 40.7166C32.7998 40.7166 26.9331 34.85 26.9331 27.65C26.9331 20.45 32.7998 14.5667 39.9998 14.5667C47.1998 14.5667 53.0664 20.4333 53.0664 27.6333C53.0664 34.8333 47.1998 40.7166 39.9998 40.7166ZM39.9998 21.2333C36.4664 21.2333 33.5998 24.1 33.5998 27.6333C33.5998 31.1666 36.4664 34.0333 39.9998 34.0333C43.5331 34.0333 46.3998 31.1666 46.3998 27.6333C46.3998 24.1 43.5331 21.2333 39.9998 21.2333ZM75.8331 79.1666H4.16643C2.9331 79.1666 1.79976 78.4833 1.2331 77.4C0.649762 76.3166 0.716429 75 1.39976 73.9666L17.7331 49.6333C18.3498 48.7166 19.3831 48.15 20.4998 48.15H27.0998V54.8166H22.2831L10.4164 72.5H69.5831L57.7164 54.8333H52.8998V48.1666H59.4998C60.6164 48.1666 61.6498 48.7166 62.2664 49.65L78.5998 73.9833C79.2831 75 79.3498 76.3166 78.7664 77.4166C78.1998 78.4833 77.0664 79.1666 75.8331 79.1666Z" fill="#313131"/>
</g>
<defs>
<clipPath id="clip0_1_1048">
<rect width="80" height="80" fill="white"/>
</clipPath>
</defs>
</svg>
