<svg width="80" height="80" viewBox="0 0 80 80" fill="none" xmlns="http://www.w3.org/2000/svg">
<g id="Room">
<path id="Vector" d="M39.9998 43.3333C37.9998 43.3333 36.6665 42 36.6665 40C36.6665 38 37.9998 36.6666 39.9998 36.6666C41.9998 36.6666 43.3332 38 43.3332 40C43.3332 42 41.9998 43.3333 39.9998 43.3333Z" fill="#9B9A78"/>
<path id="Vector_2" d="M60 16.6667V56.6667C60 58.3333 58.3333 60 56.6667 60H50V24.6667C50 21.6667 48 19.3333 45.3333 18.3333L20 10H53.3333C57 10 60 13 60 16.6667Z" fill="#9B9A78"/>
<path id="Vector_3" d="M53.3332 6.66663H19.9998H19.6665H19.3332C18.9998 6.66663 18.6665 6.99996 18.3332 6.99996C18.3332 6.99996 18.3332 6.99996 17.9998 6.99996C17.9998 6.99996 17.9998 6.99996 17.6665 7.33329C17.6665 7.66663 17.3332 7.99996 17.3332 8.33329C16.9998 8.66663 16.6665 8.99996 16.6665 9.33329C16.6665 9.66663 16.6665 9.99996 16.6665 9.99996V57.6666C16.6665 60.6666 18.3332 63 21.3332 64L44.6665 71.6666C45.3332 72 45.9998 72 46.6665 72C47.9998 72 49.3332 71.6666 50.6665 70.6666C52.3332 69.3333 53.3332 67.3333 53.3332 65.3333V63.3333H56.6665C60.3332 63.3333 63.3332 60.3333 63.3332 56.6666V16.6666C63.3332 11 58.9998 6.66663 53.3332 6.66663ZM46.6665 65.3333L23.3332 57.6666V14.6666L44.3332 21.6666C45.6665 22 46.6665 23.3333 46.6665 24.6666V60V65.3333ZM56.6665 56.6666H53.3332V24.6666C53.3332 20.3333 50.6665 16.6666 46.3332 15.3333L40.6665 13.3333H53.3332C55.3332 13.3333 56.6665 14.6666 56.6665 16.6666V56.6666Z" fill="#313131"/>
</g>
</svg>
