<svg width="80" height="80" viewBox="0 0 80 80" fill="none" xmlns="http://www.w3.org/2000/svg">
<g id="wifi">
<path id="Vector" d="M6.15407 30.1538C5.38484 30.1538 4.61561 29.8462 4.00023 29.2308C2.76946 28 2.76946 26.1538 4.00023 24.9231C13.5387 15.2308 26.4618 10 40.0002 10C53.5387 10 66.4618 15.2308 76.0002 24.9231C77.231 26.1538 77.231 28 76.0002 29.2308C74.7695 30.4615 72.9233 30.4615 71.6925 29.2308C63.231 20.7692 52.0002 16.1538 40.0002 16.1538C28.0002 16.1538 16.7695 20.7692 8.30792 29.2308C7.69253 29.8462 6.9233 30.1538 6.15407 30.1538Z" fill="#313131"/>
<path id="Vector_2" d="M14.7693 38.7692C14.0001 38.7692 13.2308 38.4615 12.6155 37.8461C11.3847 36.6153 11.3847 34.7692 12.6155 33.5384C19.8462 26.3077 29.6924 22.1538 40.0001 22.1538C50.3078 22.1538 60.0001 26.1538 67.3847 33.5384C68.6155 34.7692 68.6155 36.6153 67.3847 37.8461C66.1539 39.0769 64.3078 39.0769 63.077 37.8461C56.9232 31.6923 48.7693 28.3077 40.1539 28.3077C31.5385 28.3077 23.3847 31.6923 17.2308 37.8461C16.4616 38.4615 15.6924 38.7692 14.7693 38.7692Z" fill="#313131"/>
<path id="Vector_3" d="M23.5383 47.5384C22.7691 47.5384 21.9999 47.2307 21.3845 46.6154C20.1537 45.3846 20.1537 43.5384 21.3845 42.3077C26.3076 37.3846 32.923 34.6154 39.9999 34.6154C47.0768 34.6154 53.6922 37.3846 58.6153 42.3077C59.846 43.5384 59.846 45.3846 58.6153 46.6154C57.3845 47.8461 55.5383 47.8461 54.3076 46.6154C50.4614 42.7692 45.3845 40.7692 39.9999 40.7692C34.6153 40.7692 29.5384 42.923 25.6922 46.7692C25.0768 47.2307 24.3076 47.5384 23.5383 47.5384Z" fill="#313131"/>
<path id="Vector_4" d="M40.0001 66.9231C44.5883 66.9231 48.3078 63.2036 48.3078 58.6154C48.3078 54.0272 44.5883 50.3077 40.0001 50.3077C35.4119 50.3077 31.6924 54.0272 31.6924 58.6154C31.6924 63.2036 35.4119 66.9231 40.0001 66.9231Z" fill="#9B9A78"/>
<path id="Vector_5" d="M40 70C37.0769 70 34.1538 68.923 32 66.6154C27.5384 62.1538 27.5384 54.923 32 50.4615C36.4615 46 43.6923 46 48.1538 50.4615C50.3077 52.6154 51.5384 55.5384 51.5384 58.4615C51.5384 61.3846 50.3077 64.3077 48.1538 66.4615C45.8461 68.9231 42.923 70 40 70ZM40 53.3846C38.6153 53.3846 37.2307 53.8461 36.3077 54.9231C34.3077 56.9231 34.3077 60.3077 36.3077 62.3077C38.3077 64.3077 41.6923 64.3077 43.6923 62.3077C44.6153 61.3846 45.2307 60 45.2307 58.6154C45.2307 57.2307 44.6153 55.8461 43.6923 54.9231C42.7692 53.8461 41.3846 53.3846 40 53.3846Z" fill="#313131"/>
</g>
</svg>
